# xmcd
#
# Track frame offsets:
#	188
#	12965
#	23180
#	38378
#	49038
#	62788
#	75495
#	86405
#	96205
#	109068
#	120523
#	134548
#	145495
#	157793
#
# Disc length: 2276 seconds
#
# Revision: 10
# Processed by: cddbd v1.4PL0 Copyright (c) Steve Scherf et al.
# Submitted via: MusicWizard 6.0.1
#
DISCID=a708e20e
DTITLE=Howling Wolf - No Place To Go
DYEAR=1900
DGENRE=Blues
TTITLE0=Killing Floor
TTITLE1=Do The Do
TTITLE2=I Ain´t Superstitious
TTITLE3=Who´s Been Talking
TTITLE4=Threehundred Pounds Of Joy
TTITLE5=Back Door Man
TTITLE6=Wang Dang Doodle
TTITLE7=Down In The Bottom
TTITLE8=No Place To Go
TTITLE9=Sitting On The Top Of The World
TTITLE10=Smokestack Lightning
TTITLE11=The Red Rooster
TTITLE12=Spoonful
TTITLE13=Evil
EXTD=
EXTT0=
EXTT1=
EXTT2=
EXTT3=
EXTT4=
EXTT5=
EXTT6=
EXTT7=
EXTT8=
EXTT9=
EXTT10=
EXTT11=
EXTT12=
EXTT13=
PLAYORDER=
